<svg xmlns="http://www.w3.org/2000/svg" viewBox="0 0 864 354" width="864" height="354" font-family="Inter, 'Malgun Gothic', sans-serif">
<defs><marker id="arrow" viewBox="0 0 10 10" refX="9" refY="5" markerWidth="7" markerHeight="7" orient="auto-start-reverse"><path d="M 0 0 L 10 5 L 0 10 z" fill="#7787a2"/></marker></defs>
<rect x="0.5" y="0.5" width="863" height="353" rx="14" fill="#ffffff" stroke="#e2e8f0"/>
<text x="20" y="30" font-size="14" font-weight="700" fill="#0f172a">퍼포먼스 최적화 — 기법 한눈에</text>
<path d="M 435.0 94.0 L 435.0 113.0 L 160.0 113.0 L 160.0 132.0" fill="none" stroke="#7787a2" stroke-width="1.5" marker-end="url(#arrow)"/>
<path d="M 435.0 94.0 L 435.0 113.0 L 430.0 113.0 L 430.0 132.0" fill="none" stroke="#7787a2" stroke-width="1.5" marker-end="url(#arrow)"/>
<path d="M 435.0 94.0 L 435.0 113.0 L 710.0 113.0 L 710.0 132.0" fill="none" stroke="#7787a2" stroke-width="1.5" marker-end="url(#arrow)"/>
<path d="M 160.0 178.0 L 160.0 195.0 L 160.0 195.0 L 160.0 212.0" fill="none" stroke="#7787a2" stroke-width="1.5" marker-end="url(#arrow)"/>
<path d="M 430.0 178.0 L 430.0 195.0 L 430.0 195.0 L 430.0 212.0" fill="none" stroke="#7787a2" stroke-width="1.5" marker-end="url(#arrow)"/>
<path d="M 430.0 260.0 L 430.0 269.0 L 430.0 269.0 L 430.0 278.0" fill="none" stroke="#7787a2" stroke-width="1.5" marker-end="url(#arrow)"/>
<path d="M 710.0 178.0 L 710.0 195.0 L 710.0 195.0 L 710.0 212.0" fill="none" stroke="#7787a2" stroke-width="1.5" marker-end="url(#arrow)"/>
<path d="M 710.0 268.0 L 710.0 277.0 L 710.0 277.0 L 710.0 286.0" fill="none" stroke="#7787a2" stroke-width="1.5" marker-end="url(#arrow)"/>
<rect x="310" y="48" width="250" height="46" rx="9" ry="9" fill="#e3f5ee" stroke="#2fa37a" stroke-width="1.5"/><text x="435.0" y="75.0" text-anchor="middle" font-size="12.5" font-weight="600" fill="#1e293b">퍼포먼스 / 메모리 최적화</text>
<rect x="40" y="132" width="240" height="46" rx="9" ry="9" fill="#efe8fb" stroke="#7c5cc4" stroke-width="1.5"/><text x="160.0" y="159.0" text-anchor="middle" font-size="12.5" font-weight="600" fill="#1e293b">UI 렌더링 (Slate)</text>
<rect x="310" y="132" width="240" height="46" rx="9" ry="9" fill="#dbe9ff" stroke="#3b6fb0" stroke-width="1.5"/><text x="430.0" y="159.0" text-anchor="middle" font-size="12.5" font-weight="600" fill="#1e293b">Tick 제어</text>
<rect x="580" y="132" width="260" height="46" rx="9" ry="9" fill="#fdeede" stroke="#d9822b" stroke-width="1.5"/><text x="710.0" y="159.0" text-anchor="middle" font-size="12.5" font-weight="600" fill="#1e293b">메모리 관리</text>
<rect x="40" y="212" width="240" height="56" rx="9" ry="9" fill="#eef2f7" stroke="#64748b" stroke-width="1.5"/><text x="160.0" y="244.0" text-anchor="middle" font-size="12.5" font-weight="600" fill="#1e293b">Global Invalidation 동적 토글 · ForceVolatile</text>
<rect x="310" y="212" width="240" height="48" rx="9" ry="9" fill="#eef2f7" stroke="#64748b" stroke-width="1.5"/><text x="430.0" y="240.0" text-anchor="middle" font-size="12.5" font-weight="600" fill="#1e293b">Significance 거리별 Tick</text>
<rect x="310" y="278" width="240" height="48" rx="9" ry="9" fill="#eef2f7" stroke="#64748b" stroke-width="1.5"/><text x="430.0" y="306.0" text-anchor="middle" font-size="12.5" font-weight="600" fill="#1e293b">상태별 Tick 비활성화</text>
<rect x="580" y="212" width="260" height="56" rx="9" ry="9" fill="#eef2f7" stroke="#64748b" stroke-width="1.5"/><text x="710.0" y="236.5" text-anchor="middle" font-size="12.5" font-weight="600" fill="#1e293b">오브젝트 풀링 — Tick 先비활성화</text><text x="710.0" y="251.5" text-anchor="middle" font-size="11" font-weight="400" fill="#475569">(freed-tick 방지)</text>
<rect x="580" y="286" width="260" height="48" rx="9" ry="9" fill="#eef2f7" stroke="#64748b" stroke-width="1.5"/><text x="710.0" y="314.0" text-anchor="middle" font-size="12.5" font-weight="600" fill="#1e293b">명시적 GC (UObject Exceed 방지)</text>
</svg>