<svg xmlns="http://www.w3.org/2000/svg" viewBox="0 0 959 402" width="959" height="402" font-family="Inter, 'Malgun Gothic', sans-serif">
<defs><marker id="arrow" viewBox="0 0 10 10" refX="9" refY="5" markerWidth="7" markerHeight="7" orient="auto-start-reverse"><path d="M 0 0 L 10 5 L 0 10 z" fill="#7787a2"/></marker></defs>
<rect x="0.5" y="0.5" width="958" height="401" rx="14" fill="#ffffff" stroke="#e2e8f0"/>
<text x="20" y="30" font-size="14" font-weight="700" fill="#0f172a">Sol 클라이언트 서버 아키텍처 — Lobby·Geo(TCP)·Noti/API(WS·HTTP)·Channel(채팅 WS)  ※URL: USolConfigSubsystem(CDN)</text>
<path d="M 102.5 116.0 L 102.5 150.0 L 195.0 150.0 L 195.0 184.0" fill="none" stroke="#7787a2" stroke-width="1.5" marker-end="url(#arrow)"/><rect x="125.0" y="141.0" width="47.6" height="17" rx="4" fill="#ffffff" opacity="0.92"/><text x="148.8" y="153.5" text-anchor="middle" font-size="10.5" fill="#475569">로그인·샤드</text>
<path d="M 282.5 116.0 L 282.5 150.0 L 195.0 150.0 L 195.0 184.0" fill="none" stroke="#7787a2" stroke-width="1.5" marker-end="url(#arrow)"/><rect x="205.1" y="141.0" width="67.4" height="17" rx="4" fill="#ffffff" opacity="0.92"/><text x="238.8" y="153.5" text-anchor="middle" font-size="10.5" fill="#475569">패킷·Cipher</text>
<path d="M 462.5 116.0 L 462.5 150.0 L 540.0 150.0 L 540.0 184.0" fill="none" stroke="#7787a2" stroke-width="1.5" marker-end="url(#arrow)"/><rect x="490.6" y="141.0" width="21.2" height="17" rx="4" fill="#ffffff" opacity="0.92"/><text x="501.2" y="153.5" text-anchor="middle" font-size="10.5" fill="#475569">푸시</text>
<path d="M 642.5 116.0 L 642.5 150.0 L 540.0 150.0 L 540.0 184.0" fill="none" stroke="#7787a2" stroke-width="1.5" marker-end="url(#arrow)"/><rect x="574.0" y="141.0" width="34.4" height="17" rx="4" fill="#ffffff" opacity="0.92"/><text x="591.2" y="153.5" text-anchor="middle" font-size="10.5" fill="#475569">HTTP</text>
<path d="M 837.5 116.0 L 837.5 150.0 L 838.5 150.0 L 838.5 184.0" fill="none" stroke="#7787a2" stroke-width="1.5" marker-end="url(#arrow)"/><rect x="817.5" y="141.0" width="41.0" height="17" rx="4" fill="#ffffff" opacity="0.92"/><text x="838.0" y="153.5" text-anchor="middle" font-size="10.5" fill="#475569">채팅 WS</text>
<path d="M 195.0 246.0 L 195.0 277.0 L 340.0 277.0 L 340.0 308.0" fill="none" stroke="#7787a2" stroke-width="1.5" marker-end="url(#arrow)"/><rect x="240.4" y="268.0" width="54.2" height="17" rx="4" fill="#ffffff" opacity="0.92"/><text x="267.5" y="280.5" text-anchor="middle" font-size="10.5" fill="#475569">TCP 이벤트</text>
<path d="M 540.0 246.0 L 540.0 277.0 L 340.0 277.0 L 340.0 308.0" fill="none" stroke="#7787a2" stroke-width="1.5" marker-end="url(#arrow)"/><rect x="409.6" y="268.0" width="60.8" height="17" rx="4" fill="#ffffff" opacity="0.92"/><text x="440.0" y="280.5" text-anchor="middle" font-size="10.5" fill="#475569">Noti·API</text>
<path d="M 838.5 246.0 L 838.5 280.0 L 710.0 280.0 L 710.0 314.0" fill="none" stroke="#7787a2" stroke-width="1.5" marker-end="url(#arrow)"/><rect x="753.8" y="271.0" width="41.0" height="17" rx="4" fill="#ffffff" opacity="0.92"/><text x="774.2" y="283.5" text-anchor="middle" font-size="10.5" fill="#475569">채널 채팅</text>
<path d="M 195.0 246.0 L 195.0 280.0 L 710.0 280.0 L 710.0 314.0" fill="none" stroke="#7787a2" stroke-width="1.5" marker-end="url(#arrow)"/><rect x="428.7" y="271.0" width="47.6" height="17" rx="4" fill="#ffffff" opacity="0.92"/><text x="452.5" y="283.5" text-anchor="middle" font-size="10.5" fill="#475569">geo 채팅</text>
<rect x="20" y="60" width="165" height="56" rx="9" ry="9" fill="#e8f1ff" stroke="#4a80c8" stroke-width="1.5"/><text x="102.5" y="84.5" text-anchor="middle" font-size="12.5" font-weight="600" fill="#1e293b">로비 서버 · HTTP</text><text x="102.5" y="99.5" text-anchor="middle" font-size="11" font-weight="400" fill="#475569">USolLobbySubsystem</text>
<rect x="200" y="60" width="165" height="56" rx="9" ry="9" fill="#e8f1ff" stroke="#4a80c8" stroke-width="1.5"/><text x="282.5" y="84.5" text-anchor="middle" font-size="12.5" font-weight="600" fill="#1e293b">게임 서버 Geo · TCP</text><text x="282.5" y="99.5" text-anchor="middle" font-size="11" font-weight="400" fill="#475569">NetworkClient</text>
<rect x="380" y="60" width="165" height="56" rx="9" ry="9" fill="#e8f1ff" stroke="#4a80c8" stroke-width="1.5"/><text x="462.5" y="84.5" text-anchor="middle" font-size="12.5" font-weight="600" fill="#1e293b">Noti 서버 · WebSocket</text><text x="462.5" y="99.5" text-anchor="middle" font-size="11" font-weight="400" fill="#475569">UNetworkNotiClient</text>
<rect x="560" y="60" width="165" height="56" rx="9" ry="9" fill="#e8f1ff" stroke="#4a80c8" stroke-width="1.5"/><text x="642.5" y="84.5" text-anchor="middle" font-size="12.5" font-weight="600" fill="#1e293b">API 서버(다수) · HTTP</text><text x="642.5" y="99.5" text-anchor="middle" font-size="11" font-weight="400" fill="#475569">EApiServerType 40+</text>
<rect x="740" y="60" width="195" height="56" rx="9" ry="9" fill="#e8f1ff" stroke="#4a80c8" stroke-width="1.5"/><text x="837.5" y="84.5" text-anchor="middle" font-size="12.5" font-weight="600" fill="#1e293b">채널 서버(채팅) · WebSocket</text><text x="837.5" y="99.5" text-anchor="middle" font-size="11" font-weight="400" fill="#475569">UNetworkChannelSystem</text>
<rect x="95" y="184" width="200" height="62" rx="9" ry="9" fill="#dbe9ff" stroke="#3b6fb0" stroke-width="1.5"/><text x="195.0" y="211.5" text-anchor="middle" font-size="12.5" font-weight="600" fill="#1e293b">USolGeoSubsystem</text><text x="195.0" y="226.5" text-anchor="middle" font-size="11" font-weight="400" fill="#475569">TCP 수신 · 로그인 플로우</text>
<rect x="395" y="184" width="290" height="62" rx="9" ry="9" fill="#dbe9ff" stroke="#3b6fb0" stroke-width="1.5"/><text x="540.0" y="211.5" text-anchor="middle" font-size="12.5" font-weight="600" fill="#1e293b">UNetworkNotiClient</text><text x="540.0" y="226.5" text-anchor="middle" font-size="11" font-weight="400" fill="#475569">WS 푸시 수신 + HTTP API 클라이언트</text>
<rect x="742" y="184" width="193" height="62" rx="9" ry="9" fill="#dbe9ff" stroke="#3b6fb0" stroke-width="1.5"/><text x="838.5" y="211.5" text-anchor="middle" font-size="12.5" font-weight="600" fill="#1e293b">UNetworkChannelSystem</text><text x="838.5" y="226.5" text-anchor="middle" font-size="11" font-weight="400" fill="#475569">채널별 채팅(EChatType)</text>
<rect x="150" y="308" width="380" height="74" rx="9" ry="9" fill="#e3f5ee" stroke="#2fa37a" stroke-width="1.5"/><text x="340.0" y="334.0" text-anchor="middle" font-size="12.5" font-weight="600" fill="#1e293b">Feature Managers</text><text x="340.0" y="349.0" text-anchor="middle" font-size="11" font-weight="400" fill="#475569">UGuildManager · UTravelManager …</text><text x="340.0" y="364.0" text-anchor="middle" font-size="11" font-weight="400" fill="#475569">USolGameInstanceSubsystem + INetworkNotiClientListener</text>
<rect x="610" y="314" width="200" height="62" rx="9" ry="9" fill="#e3f5ee" stroke="#2fa37a" stroke-width="1.5"/><text x="710.0" y="341.5" text-anchor="middle" font-size="12.5" font-weight="600" fill="#1e293b">UChatManager</text><text x="710.0" y="356.5" text-anchor="middle" font-size="11" font-weight="400" fill="#475569">채팅 UI 연동</text>
</svg>